<?xml version="1.0" encoding="UTF-8"?>
<!DOCTYPE svg PUBLIC "-//W3C//DTD SVG 1.1//EN" "http://www.w3.org/Graphics/SVG/1.1/DTD/svg11.dtd">
<!-- Creator: CorelDRAW 2019 -->
<svg xmlns="http://www.w3.org/2000/svg" xml:space="preserve" width="297mm" height="210mm" version="1.1" style="shape-rendering:geometricPrecision; text-rendering:geometricPrecision; image-rendering:optimizeQuality; fill-rule:evenodd; clip-rule:evenodd"
viewBox="0 0 29700 21000"
 xmlns:xlink="http://www.w3.org/1999/xlink"
 xmlns:xodm="http://www.corel.com/coreldraw/odm/2003"
 enable-background="new 924 578 200 200">
 <defs>
  <style type="text/css">
   <![CDATA[
    .fil0 {fill:red;fill-rule:nonzero}
   ]]>
  </style>
 </defs>
 <g id="Layer_x0020_1">
  <metadata id="CorelCorpID_0Corel-Layer"/>
  <g id="_676037304">
   <g>
    <g>
     <path class="fil0" d="M12247.94 6744.78c0,1187.7 -599.18,2150.58 -1338.27,2150.58 -739.02,0 -1338.07,-962.88 -1338.07,-2150.58 0,-1187.59 599.05,-2150.38 1338.07,-2150.38 739.12,0 1338.27,962.79 1338.27,2150.38z"/>
     <path class="fil0" d="M12435.01 10537.07c96.63,-80.16 203.58,-132.43 314.32,-157.38 -224.86,-431.64 -384.15,-894.7 -476.18,-1448.9 -25.19,-202.53 -228.98,-226.26 -380.49,-58.3 -283.47,314.41 -614.14,524.83 -983.04,524.83 -375.99,0 -721.88,-203.52 -999.17,-544.16 -88.48,-108.77 -218.87,-125.22 -320.71,-40.63 -526.46,437.61 -924.96,1132.12 -1098.82,1956.99 -46.71,221 -13.9,459.83 87.98,643.79 102.02,183.77 261.38,292.12 430.62,292.12l2411.16 0c288.65,-453.06 629.29,-848.59 1014.33,-1168.36z"/>
    </g>
    <g>
     <path class="fil0" d="M17163.42 6744.78c0,1187.7 599.1,2150.58 1338.19,2150.58 739.17,0 1338.15,-962.88 1338.15,-2150.58 0,-1187.59 -598.98,-2150.38 -1338.15,-2150.38 -739.09,0 -1338.19,962.79 -1338.19,2150.38z"/>
     <path class="fil0" d="M16976.3 10537.07c-96.65,-80.16 -203.65,-132.43 -314.34,-157.38 224.85,-431.64 384.17,-894.7 476.2,-1448.9 25.26,-202.53 229.02,-226.26 380.56,-58.3 283.47,314.41 614.07,524.83 982.96,524.83 375.95,0 721.89,-203.52 999.23,-544.16 88.47,-108.77 218.8,-125.22 320.63,-40.63 526.52,437.61 925.09,1132.12 1098.8,1956.99 46.64,221 13.91,459.83 -87.93,643.79 -102.07,183.77 -261.36,292.12 -430.52,292.12l-2411.26 0c-288.65,-453.06 -629.22,-848.59 -1014.33,-1168.36z"/>
    </g>
    <g>
     <path class="fil0" d="M18351.84 14084.28c-261.76,-1243.26 -855.51,-2294.55 -1641.55,-2968.77 -155.07,-132.85 -356.36,-111.39 -493.92,53.55 -421.9,505.59 -943.94,806.5 -1510.73,806.5 -577.96,0 -1109.35,-312.74 -1535.54,-836.12 -136.06,-167.23 -336.28,-192.43 -492.72,-62.28 -809.16,672.3 -1421.6,1739.59 -1688.66,3007.22 -71.77,340.06 -21.45,706.58 135.06,989.43 156.89,282.53 401.75,448.89 661.91,448.89l5769.21 0c260.2,0 505.25,-165.87 662.07,-448.89 156.58,-282.95 206.64,-649.11 134.87,-989.53z"/>
     <path class="fil0" d="M16762.17 7899.07c0,1825.19 -920.73,3304.95 -2056.53,3304.95 -1135.72,0 -2056.4,-1479.79 -2056.4,-3304.95 0,-1825.36 920.68,-3304.67 2056.4,-3304.67 1135.85,0 2056.53,1479.37 2056.53,3304.67z"/>
    </g>
   </g>
  </g>
 </g>
</svg>
