<?xml version="1.0" encoding="UTF-8"?>
<!DOCTYPE svg PUBLIC "-//W3C//DTD SVG 1.1//EN" "http://www.w3.org/Graphics/SVG/1.1/DTD/svg11.dtd">
<!-- Creator: CorelDRAW 2019 -->
<svg xmlns="http://www.w3.org/2000/svg" xml:space="preserve" width="150mm" height="100mm" version="1.1" style="shape-rendering:geometricPrecision; text-rendering:geometricPrecision; image-rendering:optimizeQuality; fill-rule:evenodd; clip-rule:evenodd"
viewBox="0 0 15000 10000"
 xmlns:xlink="http://www.w3.org/1999/xlink"
 xmlns:xodm="http://www.corel.com/coreldraw/odm/2003">
 <defs>
  <style type="text/css">
   <![CDATA[
    .fil1 {fill:red}
    .fil0 {fill:#393939;fill-rule:nonzero;fill-opacity:0.400000}
   ]]>
  </style>
 </defs>
 <g id="Layer_x0020_1">
  <metadata id="CorelCorpID_0Corel-Layer"/>
  <g id="_624293416">
   <path class="fil0" d="M7807.06 7567.99c-234.06,0 -467.79,-88.86 -646.46,-266.34l-222.17 -222.16c-86.19,-85.84 -201.54,-133.38 -323.88,-133.64l-312.58 0c-505.23,0 -916.43,-411.19 -916.43,-916.43l0 -312.92c-0.34,-122 -47.79,-237.44 -133.9,-324.14l-218.54 -218.2c-357.96,-355.8 -359.51,-937.48 -3.36,-1295.7l222.16 -222.5c85.85,-86.11 133.3,-201.46 133.64,-323.8l0 -312.32c0,-505.58 411.2,-916.78 916.43,-916.78l312.84 0c122.08,0 237.17,-47.45 323.88,-134.16l218.89 -218.27c355.71,-357.97 937.13,-359.78 1295.61,-3.37l222.25 222.25c86.45,86.1 201.45,133.55 323.53,133.55l312.84 0c505.24,0 916.43,411.2 916.43,916.78l0 312.58c0.35,122.08 47.8,237.43 133.9,324.14l218.63 218.54c173.15,172.29 269.01,401.79 269.96,646.81 0.6,243.47 -93.18,472.62 -263.92,645.78 -3.02,3.11 -5.78,6.47 -8.8,9.15l-216.13 216.12c-85.84,86.1 -133.29,201.54 -133.64,323.88l0 312.58c0,505.24 -411.19,916.43 -916.43,916.43l-312.84 0c-122.08,0.26 -237.43,47.8 -323.88,133.9l-218.79 218.54c-178.42,179.54 -413.96,269.7 -649.24,269.7z"/>
   <path class="fil1" d="M7211.58 3931.61c-50.21,50.21 -115.35,77.3 -187.47,77.3 -67.56,0 -133.91,-27.69 -187.14,-77.56 -50.56,-50.3 -79.11,-119.06 -79.11,-188.77 0,-66.35 27.95,-134.51 77.3,-187.14 27,-27.43 59.36,-48.14 91.54,-59.1 91.97,-41.93 213.97,-17.34 286.44,58.76 25.88,25.88 45.64,54.18 58.75,83.69 14.32,31.66 21.57,67.64 21.57,103.79 0,72.47 -28.9,139.76 -81.88,189.03zm1566.79 -377.72c-103.8,-103.53 -272.72,-103.53 -376.43,0l-1564.45 1564.45c-103.79,103.71 -103.79,272.64 0,376.77 50.47,50.21 117.16,77.91 188.43,77.91 71.18,0 137.87,-27.7 188.08,-77.91l1564.37 -1564.45c103.79,-104.05 103.79,-272.72 0,-376.77zm-86.63 1507.85c-98.61,-41.41 -215.51,-18.89 -293.42,59.02 -16.14,18.89 -38.91,48.05 -54.44,82.48 -16.48,37.18 -18.55,77.04 -18.55,103.79 0,26.83 2.07,66.35 18.55,103.53 15.18,34.08 33.47,61.77 57.54,85.76 55.05,51.16 118.98,77.04 190.16,77.04 67.55,0 133.98,-27.43 188.42,-78.25 48.41,-48.4 74.89,-115.35 74.89,-188.08 0,-72.99 -26.48,-139.68 -75.23,-188.43 -26.75,-26.49 -59.01,-47.11 -87.92,-56.86z"/>
  </g>
 </g>
</svg>
