<?xml version="1.0" encoding="UTF-8"?>
<!DOCTYPE svg PUBLIC "-//W3C//DTD SVG 1.1//EN" "http://www.w3.org/Graphics/SVG/1.1/DTD/svg11.dtd">
<!-- Creator: CorelDRAW 2019 -->
<svg xmlns="http://www.w3.org/2000/svg" xml:space="preserve" width="297mm" height="210mm" version="1.1" style="shape-rendering:geometricPrecision; text-rendering:geometricPrecision; image-rendering:optimizeQuality; fill-rule:evenodd; clip-rule:evenodd"
viewBox="0 0 29700 21000"
 xmlns:xlink="http://www.w3.org/1999/xlink"
 xmlns:xodm="http://www.corel.com/coreldraw/odm/2003"
 enable-background="new 0 0 512 512">
 <defs>
  <style type="text/css">
   <![CDATA[
    .fil0 {fill:red;fill-rule:nonzero}
   ]]>
  </style>
 </defs>
 <g id="Layer_x0020_1">
  <metadata id="CorelCorpID_0Corel-Layer"/>
  <g id="_760131976">
   <g>
    <g>
     <g>
      <path class="fil0" d="M20854.95 10648.9c0,-2216.34 -1923.72,-4149.21 -4681.68,-4700.51 -263.76,-53.57 -533.26,71.43 -599.2,276.77 -68.8,205.33 91.75,415.14 355.51,466.47 2319.32,462.02 3939.14,2091.35 3939.14,3957.27 0,1644.95 -1258.58,3102.43 -3142.14,3743l455.84 -825.83c106.07,-194.18 -8.59,-419.6 -258.02,-504.42 -249.43,-82.59 -538.98,6.69 -647.93,200.88l-888.74 1611.47c-106.07,194.18 8.61,419.61 258.02,504.42l2069.92 691.91c309.63,84.81 567.66,-55.8 647.93,-200.88 106.07,-194.18 -8.6,-419.61 -258.03,-504.42l-900.22 -301.31c2193.2,-772.26 3649.6,-2486.41 3649.6,-4414.82l0 0z"/>
      <path class="fil0" d="M13309.22 14606.16c-2319.34,-464.25 -3939.15,-2091.34 -3939.15,-3957.26 0,-1622.63 1224.17,-3062.25 3064.73,-3716.21l-427.17 772.25c-106.07,194.19 2.87,428.54 258.03,504.43 298.15,87.04 550.45,-17.86 647.92,-200.88l888.74 -1613.7c86.01,-156.24 83.14,-390.6 -258.02,-504.42l-2069.92 -691.91c-249.43,-82.58 -538.98,6.69 -647.92,200.87 -106.08,194.19 8.6,419.61 258.02,504.43l963.29 321.4c-2201.79,774.49 -3663.92,2490.86 -3663.92,4423.74 0,2216.34 1926.56,4146.98 4681.67,4700.51 332.56,66.97 541.85,-102.66 599.19,-276.76 65.95,-205.34 -91.74,-412.92 -355.49,-466.48l0 -0.01z"/>
      <path class="fil0" d="M15780.5 12095.21c252.28,-205.34 378.43,-464.25 378.43,-772.25 0,-140.62 -31.53,-270.07 -91.75,-390.6 -60.2,-120.53 -146.21,-223.2 -258.02,-312.48 -111.8,-87.04 -258.02,-160.69 -435.77,-223.2 -94.6,-31.24 -283.82,-75.88 -573.38,-131.68l0 -1281.14c186.34,29.01 332.57,91.5 441.51,185.25 106.08,93.75 177.75,227.66 212.15,401.75l590.59 -69.19c-51.61,-281.23 -200.69,-504.43 -450.12,-665.12 -194.95,-127.23 -458.71,-203.11 -791.26,-227.67l0 -212.04 -338.29 0.01 0 212.04c-378.44,29.02 -665.14,111.6 -857.22,243.28 -289.56,196.42 -432.9,453.09 -432.9,770.02 0,178.57 48.74,337.04 149.08,477.65 97.46,140.61 237.95,249.97 421.43,328.09 246.56,107.14 487.38,178.56 722.46,212.04l0 1417.3c-223.62,-17.86 -418.57,-107.14 -579.12,-265.62 -111.8,-111.59 -192.07,-287.91 -235.09,-526.73l-576.24 84.81c20.06,229.89 97.46,426.3 226.48,587.01 129.01,160.69 283.82,276.75 464.44,348.18 177.75,71.43 412.84,120.52 696.66,149.54l0 444.15 338.31 0.01 0 -450.85c401.36,-15.62 728.19,-127.23 977.62,-332.56zm-1313.06 -1886c-260.87,-60.27 -444.36,-142.85 -553.31,-245.52 -108.94,-102.67 -163.4,-229.89 -163.4,-381.67 0,-154 63.05,-285.69 192.06,-397.29 129.02,-111.59 303.91,-180.79 524.65,-207.57l0 1232.04 0 0.01zm885.88 1620.4c-146.21,129.45 -329.69,203.11 -550.44,225.43l0 -1354.8c306.76,78.11 513.17,165.16 616.39,263.37 103.21,98.2 154.8,227.66 154.8,390.59 -2.86,187.48 -74.53,348.18 -220.75,475.4l0 0.01z"/>
     </g>
    </g>
   </g>
  </g>
 </g>
</svg>
