<?xml version="1.0" encoding="UTF-8"?>
<!DOCTYPE svg PUBLIC "-//W3C//DTD SVG 1.1//EN" "http://www.w3.org/Graphics/SVG/1.1/DTD/svg11.dtd">
<!-- Creator: CorelDRAW 2019 -->
<svg xmlns="http://www.w3.org/2000/svg" xml:space="preserve" width="297mm" height="210mm" version="1.1" style="shape-rendering:geometricPrecision; text-rendering:geometricPrecision; image-rendering:optimizeQuality; fill-rule:evenodd; clip-rule:evenodd"
viewBox="0 0 29700 21000"
 xmlns:xlink="http://www.w3.org/1999/xlink"
 xmlns:xodm="http://www.corel.com/coreldraw/odm/2003">
 <defs>
  <style type="text/css">
   <![CDATA[
    .fil0 {fill:red;fill-rule:nonzero}
   ]]>
  </style>
 </defs>
 <g id="Layer_x0020_1">
  <metadata id="CorelCorpID_0Corel-Layer"/>
  <g id="_980727336">
   <g>
    <g>
     <path class="fil0" d="M8438.32 5011.49l0 10054.75 11474.24 0.01 0 -10054.76 -11474.24 0zm11119.37 9699.88l-10764.5 0 0 -7688.92 10764.5 0 0 7688.92zm0 -8043.79l-10764.5 0 0 -1301.21 10764.5 0 0 1301.21z"/>
    </g>
   </g>
   <g>
    <g>
     <rect class="fil0" x="9325.51" y="5839.55" width="473.15" height="354.87"/>
    </g>
   </g>
   <g>
    <g>
     <rect class="fil0" x="10035.26" y="5839.55" width="473.15" height="354.87"/>
    </g>
   </g>
   <g>
    <g>
     <rect class="fil0" x="18552.21" y="5839.55" width="473.15" height="354.87"/>
    </g>
   </g>
   <g>
    <g>
     <path class="fil0" d="M9266.35 7495.6l0 6742.6 9818.16 0 0 -6742.6 -9818.16 0zm3430.46 6387.73l-3075.57 0 0 -6032.83 3075.57 0 0 6032.83zm6032.83 0l-5677.96 0 0 -6032.83 5677.98 0 0 6032.83 -0.02 0z"/>
    </g>
   </g>
   <g>
    <g>
     <path class="fil0" d="M11159.02 8205.37c-652.27,0 -1182.93,530.66 -1182.93,1182.92 0,652.26 530.66,1182.93 1182.93,1182.93 652.26,0 1182.92,-530.67 1182.92,-1182.93 0,-652.28 -530.66,-1182.92 -1182.92,-1182.92zm0 2010.95c-456.58,0 -828.04,-371.46 -828.04,-828.03 0,-456.57 371.46,-828.03 828.04,-828.03 456.57,0 828.03,371.45 828.03,828.03 0.02,456.55 -371.46,828.03 -828.03,828.03z"/>
    </g>
   </g>
   <g>
    <g>
     <rect class="fil0" x="9916.95" y="11044.35" width="473.15" height="354.87"/>
    </g>
   </g>
   <g>
    <g>
     <rect class="fil0" x="9916.95" y="11872.37" width="2247.54" height="354.87"/>
    </g>
   </g>
   <g>
    <g>
     <rect class="fil0" x="9916.95" y="12700.43" width="2247.54" height="354.87"/>
    </g>
   </g>
   <g>
    <g>
     <rect class="fil0" x="10626.7" y="11044.35" width="1064.62" height="354.87"/>
    </g>
   </g>
   <g>
    <g>
     <rect class="fil0" x="11927.9" y="11044.35" width="473.15" height="354.87"/>
    </g>
   </g>
   <g>
    <g>
     <path class="fil0" d="M13524.84 8323.65l0 2720.7 4731.64 0 0 -2720.7 -4731.64 0zm4376.77 2365.82l-4021.9 0 0 -2010.95 4021.9 0 0 2010.95z"/>
    </g>
   </g>
   <g>
    <g>
     <rect class="fil0" x="17842.47" y="11517.5" width="473.15" height="354.87"/>
    </g>
   </g>
   <g>
    <g>
     <rect class="fil0" x="17132.72" y="11517.5" width="473.15" height="354.87"/>
    </g>
   </g>
   <g>
    <g>
     <rect class="fil0" x="13465.7" y="11517.5" width="473.15" height="354.87"/>
    </g>
   </g>
   <g>
    <g>
     <rect class="fil0" x="13465.7" y="12227.25" width="4849.93" height="354.87"/>
    </g>
   </g>
   <g>
    <g>
     <rect class="fil0" x="13465.7" y="12937.01" width="4849.93" height="354.87"/>
    </g>
   </g>
   <g>
    <g>
     <polygon class="fil0" points="14352.89,9151.68 14352.89,9920.59 14707.76,9920.59 14707.76,9506.55 15121.78,9506.55 15121.78,9151.68 "/>
    </g>
   </g>
   <g>
   </g>
   <g>
   </g>
   <g>
   </g>
   <g>
   </g>
   <g>
   </g>
   <g>
   </g>
   <g>
   </g>
   <g>
   </g>
   <g>
   </g>
   <g>
   </g>
   <g>
   </g>
   <g>
   </g>
   <g>
   </g>
   <g>
   </g>
   <g>
   </g>
  </g>
 </g>
</svg>
